<svg width="100" height="75" viewBox="0 0 100 75" fill="none" xmlns="http://www.w3.org/2000/svg">
<rect width="100" height="75" rx="37.5" fill="white"/>
<path d="M33.9648 58.2129C33.9648 58.5059 33.5156 58.7402 32.9492 58.7402C32.3047 58.7842 31.8555 58.5498 31.8555 58.2129C31.8555 57.9199 32.3047 57.6855 32.8711 57.6855C33.457 57.6416 33.9648 57.876 33.9648 58.2129ZM27.8906 57.5537C27.7539 57.8467 28.1445 58.1836 28.7305 58.2715C29.2383 58.418 29.8242 58.2715 29.9414 57.9785C30.0586 57.6855 29.6875 57.3486 29.1016 57.2168C28.5938 57.1143 28.0273 57.2607 27.8906 57.5537ZM36.5234 57.3047C35.957 57.4072 35.5664 57.6855 35.625 58.0225C35.6836 58.3154 36.1914 58.5059 36.7773 58.4033C37.3438 58.3008 37.7344 58.0225 37.6758 57.7295C37.6172 57.4512 37.0898 57.2607 36.5234 57.3047ZM49.375 1.17188C22.2852 1.17188 1.5625 16.5967 1.5625 36.9141C1.5625 53.1592 15.1953 67.0605 34.668 71.9531C37.168 72.29 38.0469 71.1328 38.0469 70.1807C38.0469 69.2725 37.9883 64.2627 37.9883 61.1865C37.9883 61.1865 24.3164 63.3838 21.4453 56.8213C21.4453 56.8213 19.2188 52.5586 16.0156 51.46C16.0156 51.46 11.543 49.1602 16.3281 49.2041C16.3281 49.2041 21.1914 49.4971 23.8672 52.9834C28.1445 58.6377 35.3125 57.0117 38.1055 56.0449C38.5547 53.7012 39.8242 52.0752 41.2305 51.1084C30.3125 50.2002 19.2969 49.0137 19.2969 34.9219C19.2969 30.8936 20.7812 28.8721 23.9062 26.2939C23.3984 25.3418 21.7383 21.416 24.4141 16.3477C28.4961 15.3955 37.8906 20.3027 37.8906 20.3027C41.7969 19.4824 45.9961 19.0576 50.1562 19.0576C54.3164 19.0576 58.5156 19.4824 62.4219 20.3027C62.4219 20.3027 71.8164 15.3809 75.8984 16.3477C78.5742 21.4307 76.9141 25.3418 76.4062 26.2939C79.5312 28.8867 81.4453 30.9082 81.4453 34.9219C81.4453 49.0576 69.9414 50.1855 59.0234 51.1084C60.8203 52.2656 62.3438 54.4629 62.3438 57.9053C62.3438 62.8418 62.2852 68.9502 62.2852 70.1514C62.2852 71.1035 63.1836 72.2607 65.6641 71.9238C85.1953 67.0605 98.4375 53.1592 98.4375 36.9141C98.4375 16.5967 76.4648 1.17188 49.375 1.17188ZM20.5469 51.6943C20.293 51.8408 20.3516 52.1777 20.6836 52.4561C20.9961 52.6904 21.4453 52.793 21.6992 52.6025C21.9531 52.4561 21.8945 52.1191 21.5625 51.8408C21.25 51.6064 20.8008 51.5039 20.5469 51.6943ZM18.4375 50.5078C18.3008 50.6982 18.4961 50.9326 18.8867 51.0791C19.1992 51.2256 19.5898 51.1816 19.7266 50.9766C19.8633 50.7861 19.668 50.5518 19.2773 50.4053C18.8867 50.3174 18.5742 50.3613 18.4375 50.5078ZM24.7656 55.7227C24.4531 55.9131 24.5703 56.3525 25.0195 56.6309C25.4688 56.9678 26.0352 57.0117 26.2891 56.7773C26.543 56.5869 26.4258 56.1475 26.0352 55.8691C25.6055 55.5322 25.0195 55.4883 24.7656 55.7227ZM22.5391 53.5693C22.2266 53.7158 22.2266 54.0967 22.5391 54.4336C22.8516 54.7705 23.3789 54.917 23.6328 54.7705C23.9453 54.5801 23.9453 54.1992 23.6328 53.8623C23.3594 53.5254 22.8516 53.3789 22.5391 53.5693Z" fill="black"/>
</svg>
