<svg width="100" height="75" viewBox="0 0 100 75" fill="none" xmlns="http://www.w3.org/2000/svg">
<rect width="100" height="75" rx="37.5" fill="white"/>
<path d="M44.2188 31.0107C43.0812 31.5811 42.1046 32.3139 41.3447 33.1674C40.5848 34.0208 40.0565 34.9781 39.7899 35.9847C39.2514 38.0176 39.8118 40.1276 41.3477 41.8506C42.8835 43.5736 45.2691 44.7684 47.9796 45.1723C50.6901 45.5761 53.5034 45.1558 55.8008 44.0039C58.0981 42.852 59.6912 41.0628 60.2297 39.0299C60.7681 36.9971 60.2077 34.8871 58.6719 33.1641C57.136 31.4411 54.7504 30.2462 52.0399 29.8424C49.3294 29.4386 46.5161 29.8588 44.2188 31.0107ZM72.0117 20.9912C70.9961 20.2295 69.7656 19.6289 68.418 19.2334C64.8828 18.1934 57.168 18.2373 52.1875 18.2812C51.3867 18.2812 50.6445 18.2959 50 18.2959C49.3555 18.2959 48.5938 18.2959 47.7734 18.2812C42.793 18.2373 35.1172 18.1787 31.582 19.2334C30.2344 19.6289 29.0234 20.2295 27.9883 20.9912C26.9531 21.7529 26.1719 22.6758 25.6445 23.6865C24.2578 26.3379 24.3359 32.1387 24.375 35.874C24.375 36.4746 24.3945 37.0312 24.3945 37.5C24.3945 37.9688 24.3945 38.5254 24.375 39.126C24.3359 42.8613 24.2578 48.6621 25.6445 51.3135C26.1719 52.3242 26.9727 53.2324 27.9883 54.0088C29.0039 54.7852 30.2344 55.3711 31.582 55.7666C35.1172 56.8066 42.832 56.7627 47.8125 56.7188C48.6133 56.7188 49.3555 56.7041 50 56.7041C50.6445 56.7041 51.4062 56.7041 52.2266 56.7188C57.207 56.7627 64.8828 56.8213 68.418 55.7666C69.7656 55.3711 70.9766 54.7705 72.0117 54.0088C73.0469 53.2471 73.8281 52.3242 74.3555 51.3135C75.7617 48.6768 75.6836 42.9053 75.625 39.1553C75.625 38.54 75.6055 37.9688 75.6055 37.4854C75.6055 37.002 75.6055 36.4453 75.625 35.8154C75.6836 32.0801 75.7617 26.3086 74.3555 23.6572C73.8281 22.6465 73.0273 21.7383 72.0117 20.9619V20.9912ZM58.9062 27.5098C62.439 29.2813 64.8888 32.0329 65.7166 35.1591C66.5443 38.2853 65.6824 41.5301 63.3203 44.1797C62.1507 45.4916 60.6481 46.6179 58.8981 47.4943C57.1481 48.3707 55.1851 48.98 53.1212 49.2874C48.9529 49.9083 44.6265 49.2618 41.0938 47.4902C37.561 45.7206 35.1102 42.9709 34.2806 39.8461C33.451 36.7212 34.3104 33.4772 36.6699 30.8276C39.0294 28.1781 42.6957 26.34 46.8621 25.7178C51.0286 25.0955 55.354 25.7401 58.8867 27.5098H58.9062ZM64.6094 27.3193C64.0039 27.0117 63.5156 26.5723 63.2227 26.0596C62.9297 25.5469 62.8711 24.9902 63.0078 24.4336C63.1445 23.877 63.5156 23.3936 64.0234 22.998C64.5312 22.6025 65.2148 22.3389 65.9375 22.2363C66.6602 22.1338 67.4219 22.1777 68.1055 22.3975C68.7891 22.6172 69.375 22.9688 69.7852 23.4229C70.1953 23.877 70.4102 24.4189 70.4102 24.9756C70.4102 25.3418 70.3125 25.708 70.1367 26.0449C69.9609 26.3818 69.668 26.6895 69.3359 26.9531C69.0039 27.2168 68.5742 27.4219 68.125 27.5684C67.6758 27.7148 67.1875 27.7881 66.6992 27.7881C65.957 27.7881 65.2344 27.627 64.6289 27.3193H64.6094ZM93.75 14.0625C93.75 8.8916 88.1445 4.6875 81.25 4.6875H18.75C11.8555 4.6875 6.25 8.8916 6.25 14.0625V60.9375C6.25 66.1084 11.8555 70.3125 18.75 70.3125H81.25C88.1445 70.3125 93.75 66.1084 93.75 60.9375V14.0625ZM75.9766 56.9824C72.3242 59.7217 67.8906 60.5859 62.8906 60.7764C57.7344 60.9961 42.2656 60.9961 37.1094 60.7764C32.1094 60.5859 27.6758 59.7217 24.0234 56.9824C20.3711 54.2432 19.2187 50.918 18.9844 47.168C18.6914 43.3008 18.6914 31.6992 18.9844 27.832C19.2383 24.082 20.3711 20.7568 24.0234 18.0176C27.6758 15.2783 32.1289 14.4141 37.1094 14.2383C42.2656 14.0186 57.7344 14.0186 62.8906 14.2383C67.8906 14.4287 72.3242 15.2783 75.9766 18.0176C79.6289 20.7568 80.7812 24.082 81.0156 27.832C81.3086 31.6846 81.3086 43.2715 81.0156 47.1533C80.7617 50.9033 79.6289 54.2285 75.9766 56.9678V56.9824Z" fill="black"/>
</svg>
