<svg width="100" height="75" viewBox="0 0 100 75" fill="none" xmlns="http://www.w3.org/2000/svg">
<rect width="100" height="75" rx="37.5" fill="white"/>
<path d="M24.2383 37.2949C24.2383 40.9424 25.6055 44.502 28.1836 47.5635L28.7891 48.2959L26.1914 55.415L35.9375 53.4961L36.875 53.9209C40.8203 55.6787 45.3516 56.6162 49.9805 56.6162H50C64.1797 56.6162 76.0352 47.959 76.0352 37.3096C76.0352 32.1533 73.0664 27.3047 68.2031 23.6572C63.3203 19.9951 56.875 17.9883 50 17.9883C35.8008 17.9883 24.2578 26.6455 24.2383 37.2949ZM59.9219 48.3398C57.4609 48.6182 55.5469 48.4717 50.6445 46.8896C43.457 44.5605 38.5742 39.3457 37.5781 38.291C37.5 38.2031 37.4414 38.1592 37.4219 38.1299C37.0313 37.749 34.2578 34.9805 34.2578 32.124C34.2578 29.4287 36.0156 28.0371 36.8359 27.3926C36.8945 27.3486 36.9336 27.3193 36.9727 27.2754C37.6758 26.6895 38.5156 26.543 39.043 26.543C39.5508 26.543 40.0781 26.543 40.5273 26.5576C40.5859 26.5576 40.625 26.5576 40.6836 26.5576C41.1328 26.5576 41.6992 26.5576 42.2656 27.5537C42.5 27.9785 42.8516 28.623 43.2227 29.2822C43.8672 30.4541 44.5312 31.6699 44.6484 31.8604C44.8438 32.1533 44.9805 32.4902 44.707 32.8711C44.043 33.8672 43.3594 34.3945 42.8906 34.7754C42.2852 35.2441 42.0117 35.4639 42.4414 36.0352C45.4297 39.8877 48.418 41.2207 52.9688 42.9346C53.75 43.2275 54.1992 43.1836 54.6484 42.7881C55.0977 42.4072 56.582 41.0889 57.0898 40.5176C57.5977 39.9316 58.125 40.0342 58.8281 40.2246C59.5313 40.415 63.3398 41.8213 64.1211 42.1143C64.2773 42.1729 64.4141 42.2168 64.5312 42.2607C65.0781 42.4658 65.4492 42.5977 65.6055 42.7881C65.7812 43.0664 65.7812 44.2383 65.1367 45.5859C64.4922 46.9482 61.4062 48.1787 59.9219 48.3398ZM93.75 14.0625C93.75 8.8916 88.1445 4.6875 81.25 4.6875H18.75C11.8555 4.6875 6.25 8.8916 6.25 14.0625V60.9375C6.25 66.1084 11.8555 70.3125 18.75 70.3125H81.25C88.1445 70.3125 93.75 66.1084 93.75 60.9375V14.0625ZM35.1758 57.7002L18.75 60.9375L23.1445 48.8965C20.4297 45.3809 19.0039 41.3818 19.0039 37.2803C19.0234 24.4775 32.9102 14.0625 49.9805 14.0625C58.2617 14.0625 66.0352 16.4795 71.8945 20.874C77.7344 25.2686 81.25 31.0986 81.25 37.3096C81.25 50.1123 67.0508 60.5273 49.9805 60.5273C44.7852 60.5273 39.6875 59.5459 35.1758 57.7002Z" fill="black"/>
</svg>
